<svg width="128" height="90" viewBox="0 0 128 90" fill="none" xmlns="http://www.w3.org/2000/svg">
<path d="M36.6151 48.7919H27.1904C25.9115 48.7919 23.2703 48.0079 22.9367 44.8719C22.6031 41.7358 25.6335 40.3402 27.1904 40.0344H40.8687C42.2866 39.951 45.1891 38.9334 45.456 35.5305C45.7229 32.1276 42.509 31.1656 40.8687 31.11H19.8507C18.3494 31.1935 15.2968 30.4428 15.0966 26.773C14.8965 23.1032 18.1826 22.0189 19.8507 21.9355H50.0433C51.1832 21.8521 53.563 20.968 53.9633 18.0989C54.3637 15.2297 51.5168 13.456 50.0433 12.9278H36.6151C34.6968 13.0112 30.7434 12.0103 30.2763 7.33964C29.8093 2.66896 33.2511 0.50043 35.0304 0H91.0785C93.5807 0 101.754 2.83577 104.84 4.92089C107.926 7.00602 118.435 13.0946 123.523 24.3542C128.611 35.6139 130.863 51.0438 122.022 66.5572C113.181 82.0705 95.6658 88.8263 85.7406 89.1599C75.8154 89.4935 65.7234 88.8263 51.5446 77.7334C40.2015 68.8591 36.8653 54.7415 36.6151 48.7919Z" fill="#35519D"/>
<rect y="21.0674" width="12.1771" height="9.34135" rx="4.67068" fill="#35519D"/>
<rect x="55.793" y="14.1445" width="59.7215" height="59.7215" rx="29.8608" fill="white"/>
<path d="M98.3212 61.3594H90.9481L77.667 38.6878V61.3594H70.7743V26.9197H78.1473L91.4284 49.6153V26.9197H98.3212V61.3594Z" fill="#35519D"/>
<rect x="85.3398" y="63.5469" width="21.4095" height="3.06178" transform="rotate(-39.9041 85.3398 63.5469)" fill="white"/>
</svg>
